<svg width="12px" height="12px" viewBox="0 0 12 12" version="1.1" xmlns="http://www.w3.org/2000/svg" xmlns:xlink="http://www.w3.org/1999/xlink">
    <!-- Generator: Sketch 46.2 (44496) - http://www.bohemiancoding.com/sketch -->
    <title>delete</title>
    <desc>Created with Sketch.</desc>
    <defs></defs>
    <g id="final" stroke="none" stroke-width="1" fill="none" fill-rule="evenodd">
        <g id="/admin/admin_1_edit" transform="translate(-832.000000, -313.000000)">
            <g id="body" transform="translate(240.000000, 64.000000)">
                <g id="edit" transform="translate(174.000000, 228.000000)">
                    <g id="Group-4">
                        <g id="delete" transform="translate(417.000000, 20.000000)">
                            <rect id="Rectangle-7" x="0" y="0" width="14" height="14"></rect>
                            <path d="M5.58119999,6.9959628 L1.29316051,11.2892441 C0.902846553,11.6800352 0.902197661,12.3142838 1.29171117,12.705878 C1.68122468,13.0974721 2.31339975,13.0981231 2.7037137,12.707332 L6.99598534,8.40981338 L11.2969519,12.7079382 C11.6876323,13.0983605 12.3198065,13.0971124 12.7089524,12.7051506 C13.0980983,12.3131887 13.0968544,11.6789411 12.7061739,11.2885188 L8.40944355,6.99462731 L12.6880846,2.71075588 C13.0783986,2.31996479 13.0790475,1.68571622 12.689534,1.29412206 C12.3000205,0.902527895 11.6678454,0.901876875 11.2775314,1.29266797 L6.9946582,5.58077673 L2.70304814,1.29200222 C2.31236771,0.901579911 1.68019353,0.902827954 1.2910476,1.2947898 C0.901901668,1.68675165 0.903145631,2.32099932 1.29382607,2.71142162 L5.58119999,6.9959628 Z" id="Line-2" fill="#C3D1E0" fill-rule="nonzero"></path>
                        </g>
                    </g>
                </g>
            </g>
        </g>
    </g>
</svg>